# xmcd
#
# Track frame offsets:
#	150
#	19215
#	29900
#	54752
#	75560
#	93817
#	110645
#	127957
#	138387
#	153762
#	171255
#	190432
#
# Disc length: 2775 seconds
#
# Revision: 1
# Processed by: cddbd v1.4PL0 Copyright (c) Steve Scherf et al.
# Submitted via: CDmax 1.8
#
DISCID=970ad50c
DTITLE=Sven Zetterberg - Blues From Within
DYEAR=1999
DGENRE=Blues
TTITLE0=Plenty Of Everything
TTITLE1=38th Street Blues
TTITLE2=You're Breaking My Heart
TTITLE3=People Don't Do Like They Used To Do
TTITLE4=That's Why I'm Crying
TTITLE5=She's Doing The Boogaloo
TTITLE6=My Deepest Emotions
TTITLE7=Somebody Been Talking
TTITLE8=Bloody Tears
TTITLE9=Crosstown Blues
TTITLE10=All Your Love
TTITLE11=The Bottom Of The Top
EXTD=
EXTT0=
EXTT1=
EXTT2=
EXTT3=
EXTT4=
EXTT5=
EXTT6=
EXTT7=
EXTT8=
EXTT9=
EXTT10=
EXTT11=
PLAYORDER=
